<mxfile host="app.diagrams.net" modified="2023-09-25T18:18:07.554Z" agent="Mozilla/5.0 (Macintosh; Intel Mac OS X 10_15_7) AppleWebKit/537.36 (KHTML, like Gecko) Chrome/116.0.0.0 Safari/537.36" etag="pWHbno88UvbgDclzHJbd" version="21.7.5" type="github">
  <diagram name="Page-1" id="qBK1Ee0jKXNqwQDiL-o2">
    <mxGraphModel dx="1234" dy="1157" grid="1" gridSize="10" guides="1" tooltips="1" connect="1" arrows="1" fold="1" page="1" pageScale="1" pageWidth="850" pageHeight="1100" math="0" shadow="0">
      <root>
        <mxCell id="0" />
        <mxCell id="1" parent="0" />
        <mxCell id="px_U8xJiQbBfxchhKDif-1" value="Requirements&lt;br&gt;* Given URL generate shorter and unique alias&lt;br&gt;* When short url is accessed, redirect to original url&lt;br&gt;* Users can optionally pick a custom url&lt;br&gt;* Links expire after a standard default time, users can specify expiration time&lt;br&gt;&lt;br&gt;Non-functional reqs&lt;br&gt;* Highly available system&lt;br&gt;* URL redirection happens in real-time, minimal latency&lt;br&gt;* Links are not guessable&lt;br&gt;&lt;br&gt;Nice to haves&lt;br&gt;* Analytics&lt;br&gt;* Accessible through REST API&lt;br&gt;&lt;br&gt;&lt;br&gt;Capacity Estimates&lt;br&gt;Assumptions&lt;br&gt;* Read-heavy, assume a 100:1 ratio of reads to writes&lt;br&gt;Traffic Estimates&lt;br&gt;* 500M new URL shortenings per month&lt;br&gt;&amp;nbsp; * 100 (ratio) * 500M =&amp;gt; 50B redirects per month&lt;br&gt;* New URL shortenings per second:&lt;br&gt;&amp;nbsp; * 500M / (30d * 24h * 3600s) = ~200 URL/second&lt;br&gt;* Redirections per second&lt;br&gt;&amp;nbsp; * 50B / (30d * 24h * 3600s) = ~19,000 redirects/second&lt;br&gt;&lt;br&gt;Storage Estimates&lt;br&gt;* Assume we store the urls for 5 years and each take 500 bytes&lt;br&gt;* Total URLs: 500M * 5 years * 12 months = 30 Billion&lt;br&gt;* Total Storage: 30B * 500 bytes = 15 Terrabytes&lt;br&gt;&lt;br&gt;Bandwith Estimates&lt;br&gt;* Write: 200 URL/s * 500 bytes/URL = 100kb&lt;br&gt;* Read: 200 URL/s * 100 (ratio) * 500 bytes = 10mb&lt;br&gt;&lt;br&gt;Cache Memory Estimates&lt;br&gt;* Following 80/20 rule, assume 20% of URL generate 80% of traffic&lt;br&gt;* Requests Per Day: 19k/s * 3600s * 24h = ~1.7 billion requests per day&lt;br&gt;* Cache 20%: 0.2 * 1.7 Billion * 500 bytes = ~170 GB" style="text;html=1;align=left;verticalAlign=middle;resizable=0;points=[];autosize=1;strokeColor=none;fillColor=none;" vertex="1" parent="1">
          <mxGeometry width="430" height="590" as="geometry" />
        </mxCell>
        <mxCell id="px_U8xJiQbBfxchhKDif-2" value="System API&lt;br&gt;&lt;br&gt;&lt;div style=&quot;&quot;&gt;&lt;span style=&quot;background-color: initial;&quot;&gt;POST /url body: { apiDevKey: string, originalUrl: string, customAlias?: string, userName: string, expireDate: string }&lt;/span&gt;&lt;/div&gt;&lt;div style=&quot;&quot;&gt;&lt;span style=&quot;background-color: initial;&quot;&gt;&amp;nbsp; RETURN { status: number, shortenUrlID, number, shortenedUrl: string} || Error code &amp;amp; message&lt;/span&gt;&lt;/div&gt;&lt;div style=&quot;&quot;&gt;&lt;span style=&quot;background-color: initial;&quot;&gt;&lt;br&gt;&lt;/span&gt;&lt;/div&gt;&lt;div style=&quot;&quot;&gt;&lt;span style=&quot;background-color: initial;&quot;&gt;DELETE /url body {apiDevKey: string, shortenUrlId: number}&lt;br&gt;&amp;nbsp; RETURN { status: number, message: string}&lt;/span&gt;&lt;/div&gt;&lt;div style=&quot;&quot;&gt;&lt;span style=&quot;background-color: initial;&quot;&gt;&lt;br&gt;&lt;/span&gt;&lt;/div&gt;" style="text;html=1;align=left;verticalAlign=middle;resizable=0;points=[];autosize=1;strokeColor=none;fillColor=none;" vertex="1" parent="1">
          <mxGeometry x="500" width="630" height="130" as="geometry" />
        </mxCell>
      </root>
    </mxGraphModel>
  </diagram>
</mxfile>
